# xmcd
#
# Track frame offsets: 
#        150
#        21107
#        38212
#        61472
#        85960
#        105607
#        121555
#        139610
#        164172
#        187862
#        212310
#        235937
#
# Disc length: 3431 seconds
#
# Revision: 3
# Processed by: cddbd v1.5.2PL0 Copyright (c) Steve Scherf et al.
# Submitted via: ExactAudioCopy v0.99pb4
#
DISCID=970d650c
DTITLE=Joe - Everything
DYEAR=1993
DGENRE=R&B
TTITLE0=The One For Me
TTITLE1=I'm In Luv
TTITLE2=All Or Nothing
TTITLE3=It's Alright
TTITLE4=If Loving you Is Wrong
TTITLE5=What's On Your Mind
TTITLE6=Finally Back
TTITLE7=Get A Little Closer
TTITLE8=I Can Do It Right
TTITLE9=Everything
TTITLE10=Baby Don't Stop
TTITLE11=Do Me
EXTD=YEAR: 1993
EXTT0=
EXTT1=
EXTT2=
EXTT3=
EXTT4=
EXTT5=
EXTT6=
EXTT7=
EXTT8=
EXTT9=
EXTT10=
EXTT11=
PLAYORDER=
